<?xml version="1.0" standalone="no"?>
<svg t="1729089991714" class="icon" viewBox="0 0 1316 1024" version="1.1"
    xmlns="http://www.w3.org/2000/svg" p-id="9612" xmlns:xlink="http://www.w3.org/1999/xlink"
    width="257.03125" height="200">
    <path
        d="M1097.142857 292.571429v438.857142H146.285714V292.571429h950.857143z m73.142857 329.142857h73.142857v-219.428572h-73.142857V237.714286c0-10.276571-8.009143-18.285714-18.285714-18.285715h-1060.571429c-10.276571 0-18.285714 8.009143-18.285714 18.285715v548.571428c0 10.276571 8.009143 18.285714 18.285714 18.285715h1060.571429c10.276571 0 18.285714-8.009143 18.285714-18.285715V621.714286z m146.285715-219.428572v219.428572c0 40.557714-32.585143 73.142857-73.142858 73.142857v91.428571c0 50.285714-41.142857 91.428571-91.428571 91.428572h-1060.571429A91.684571 91.684571 0 0 1 0 786.285714v-548.571428C0 187.428571 41.142857 146.285714 91.428571 146.285714h1060.571429C1202.285714 146.285714 1243.428571 187.428571 1243.428571 237.714286V329.142857c40.557714 0 73.142857 32.585143 73.142858 73.142857z"
        fill="currentColor" p-id="9613"></path>
</svg>