<?xml version="1.0" standalone="no"?>
<svg t="1728741047522" class="icon" viewBox="0 0 1024 1024" version="1.1"
    xmlns="http://www.w3.org/2000/svg" p-id="1457" xmlns:xlink="http://www.w3.org/1999/xlink"
    width="200" height="200">
    <path
        d="M595.888 512l190.064-190.064A47.872 47.872 0 0 0 800 288c0-13.264-5.376-25.248-14.064-33.936l-240-240A48 48 0 0 0 464 48v332.128l-158.064-158.064a48 48 0 1 0-67.872 67.872L460.128 512 238.064 734.064a48 48 0 1 0 67.872 67.872L464 643.888V976a48 48 0 0 0 81.936 33.936l240-240A47.792 47.792 0 0 0 800 736a47.84 47.84 0 0 0-14.064-33.936L595.888 512zM560 163.888L684.112 288 560 412.112V163.888z m0 696.224V611.888L684.112 736 560 860.112z"
        p-id="1458" style="fill: currentColor;"></path>
</svg>