<?xml version="1.0" standalone="no"?>
<svg t="1725194755888" class="icon" viewBox="0 0 1024 1024" version="1.1"
    xmlns="http://www.w3.org/2000/svg" p-id="9425" xmlns:xlink="http://www.w3.org/1999/xlink"
    width="200" height="200">
    <path
        d="M512 1024c-213.333333 0-384-170.666667-384-384 0-170.666667 102.4-349.866667 145.066667-418.133333C298.666667 183.466667 418.133333 0 512 0c25.6 0 42.666667 17.066667 42.666667 42.666667s-17.066667 42.666667-42.666667 42.666667c-59.733333 8.533333-298.666667 315.733333-298.666667 554.666667 0 166.4 132.266667 298.666667 298.666667 298.666667s298.666667-132.266667 298.666667-298.666667c0-34.133333-4.266667-68.266667-12.8-110.933333-21.333333-81.066667-59.733333-174.933333-115.2-260.266667-12.8-21.333333-8.533333-46.933333 12.8-59.733333 21.333333-12.8 46.933333-8.533333 59.733333 12.8 59.733333 93.866667 102.4 196.266667 128 285.866667C891.733333 554.666667 896 601.6 896 640 896 853.333333 725.333333 1024 512 1024z"
        p-id="9426" style="fill: currentColor;"></path>
    <path
        d="M640 422.4c-12.8 0-25.6-4.266667-34.133333-12.8C516.266667 307.2 469.333333 179.2 469.333333 42.666667c0-25.6 17.066667-42.666667 42.666667-42.666667s42.666667 17.066667 42.666667 42.666667c0 115.2 42.666667 226.133333 115.2 311.466667 17.066667 17.066667 12.8 42.666667-4.266667 59.733333C661.333333 418.133333 648.533333 422.4 640 422.4z"
        p-id="9427" style="fill: currentColor;"></path>
    <path
        d="M640 422.4c-12.8 0-21.333333-4.266667-29.866667-12.8-17.066667-17.066667-17.066667-42.666667 0-59.733333 29.866667-34.133333 55.466667-72.533333 64-115.2C678.4 213.333333 704 200.533333 725.333333 204.8c21.333333 4.266667 38.4 29.866667 29.866667 51.2-12.8 55.466667-46.933333 110.933333-85.333333 153.6C661.333333 418.133333 648.533333 422.4 640 422.4z"
        p-id="9428" style="fill: currentColor;"></path>
    <path
        d="M512 1024c-119.466667 0-213.333333-93.866667-213.333333-213.333333 0-132.266667 132.266667-341.333333 213.333333-341.333333 25.6 0 42.666667 17.066667 42.666667 42.666667 0 21.333333-17.066667 38.4-38.4 42.666667C486.4 571.733333 384 708.266667 384 810.666667c0 72.533333 55.466667 128 128 128s128-55.466667 128-128c0-12.8-4.266667-29.866667-8.533333-51.2-8.533333-38.4-29.866667-81.066667-55.466667-123.733333-12.8-21.333333-8.533333-46.933333 12.8-59.733333 21.333333-12.8 46.933333-8.533333 59.733333 12.8 29.866667 46.933333 55.466667 102.4 68.266667 149.333333 4.266667 25.6 8.533333 46.933333 8.533333 72.533333C725.333333 930.133333 631.466667 1024 512 1024z"
        p-id="9429" style="fill: currentColor;"></path>
    <path
        d="M576 725.333333c-12.8 0-25.6-4.266667-34.133333-12.8C494.933333 652.8 469.333333 584.533333 469.333333 512c0-25.6 17.066667-42.666667 42.666667-42.666667s42.666667 17.066667 42.666667 42.666667c0 51.2 17.066667 102.4 51.2 140.8 17.066667 17.066667 12.8 42.666667-4.266667 59.733333C597.333333 721.066667 584.533333 725.333333 576 725.333333z"
        p-id="9430" style="fill: currentColor;"></path>
    <path
        d="M576 725.333333c-12.8 0-21.333333-4.266667-29.866667-12.8-17.066667-17.066667-17.066667-42.666667 0-59.733333 12.8-12.8 21.333333-29.866667 25.6-46.933333 4.266667-21.333333 29.866667-38.4 51.2-29.866667 21.333333 4.266667 38.4 29.866667 29.866667 51.2-8.533333 34.133333-25.6 64-51.2 85.333333C597.333333 721.066667 584.533333 725.333333 576 725.333333z"
        p-id="9431" style="fill: currentColor;"></path>
</svg>